<svg xmlns="http://www.w3.org/2000/svg" xmlns:xlink="http://www.w3.org/1999/xlink" xmlns:sketch="http://www.bohemiancoding.com/sketch/ns" width="78.3783783784px" height="100px" viewBox="0 0 87 111" version="1.1">
    <title>midi</title>
    <description>Created with Sketch (http://www.bohemiancoding.com/sketch)</description>
    <defs/>
    <g id="file-format" stroke="none" stroke-width="1" fill="none" fill-rule="evenodd" sketch:type="MSPage">
        <path d="M10,97.9975586 L10,12 C10,10 12,10 12,10 L58,10 L76,28 L76,98 C76,100 74,100 74,100 L12,100 C12,100 10,100 10,97.9975586 Z M13,95.1177051 L13,14.88 C13,13 14.8208955,13 14.8208955,13 L55,13 L55,29 C55,31 57,31 57,31 L73,31 L73,95.12 C73,97 71.1791045,97 71.1791045,97 L14.8208955,97 C14.8208955,97 13,97 13,95.1177051 Z M37.0371094,47.9697266 L56.4707031,41.9150391 L56.4707031,68.9658203 C56.4707031,70.9840596 56.214358,72.5058542 55.7016602,73.53125 C55.1889623,74.5566458 54.3182028,75.4029915 53.0893555,76.0703125 C51.8605082,76.7376335 50.4729895,77.0712891 48.9267578,77.0712891 C47.1526604,77.0712891 45.7366589,76.5626678 44.6787109,75.5454102 C43.6207629,74.5281525 43.0917969,73.2138752 43.0917969,71.6025391 C43.0917969,69.9749268 43.7184182,68.5711322 44.9716797,67.3911133 C46.2249412,66.2110944 47.8443911,65.6210938 49.8300781,65.6210938 C50.481123,65.6210938 51.0548478,65.6780593 51.5512695,65.7919922 C52.0476913,65.905925 52.8574163,66.1988909 53.9804688,66.6708984 L53.9804688,48.9951172 L39.4541016,53.5117188 L39.4541016,73.921875 C39.4541016,75.8912859 39.1936875,77.4252875 38.6728516,78.5239258 C38.1520156,79.6225641 37.2568423,80.4973926 35.9873047,81.1484375 C34.7177671,81.7994824 33.3343174,82.125 31.8369141,82.125 C30.0628167,82.125 28.6590221,81.6245167 27.6254883,80.6235352 C26.5919545,79.6225536 26.0751953,78.3164143 26.0751953,76.7050781 C26.0751953,74.9960852 26.6936787,73.5597389 27.9306641,72.3959961 C29.1676494,71.2322533 30.7870994,70.6503906 32.7890625,70.6503906 C34.0586001,70.6503906 35.4746016,71.0247358 37.0371094,71.7734375 C37.0371094,71.7734375 35.4746016,71.0247358 37.0371094,71.7734375 L37.0371094,47.9697266 Z M37.0371094,47.9697266" id="midi" fill="#000000" sketch:type="MSShapeGroup"/>
    </g>
</svg>