<svg xmlns="http://www.w3.org/2000/svg" xmlns:xlink="http://www.w3.org/1999/xlink" version="1.1" id="Calque_1" x="0px" y="0px" width="90px" height="90px" viewBox="0 0 90 90" enable-background="new 0 0 90 90" xml:space="preserve">
<circle cx="70.549" cy="22.49" r="9.354"/>
<circle cx="16.045" cy="28.685" r="7.856"/>
<g>
	<path d="M25.614,55.428c0.194,1.123,1.25,1.875,2.39,1.683c1.124-0.195,1.879-1.265,1.683-2.39   c-0.212-1.229-1.014-5.503-2.394-9.261c-0.956,3.069-1.602,6.201-1.988,8.401C25.413,54.387,25.526,54.918,25.614,55.428z"/>
	<path d="M22.885,59.69c-0.948-1.281-1.339-2.854-1.103-4.428c0.321-2.144,0.804-4.818,1.498-7.576v-0.601   c0-0.273-0.051-0.532-0.08-0.798c0.086,0.225,0.168,0.495,0.253,0.735c0.505-1.918,1.113-3.854,1.846-5.674   c-0.418-0.614-0.862-1.137-1.338-1.509c-3.261-2.55-12.408-2.234-15.685-0.106c-3.733,2.42-5.447,12.12-5.883,15.034   c-0.17,1.129,0.609,2.182,1.739,2.351c0.103,0.015,0.207,0.022,0.309,0.022c1.006,0,1.888-0.736,2.042-1.761   c0.5-3.345,1.448-7.111,2.455-9.587c-0.076,0.421-0.13,0.849-0.13,1.292v6.065c0,0.02,0.012,0.037,0.013,0.057   C8.828,59.254,9,64.824,9.351,70.21c0.086,1.312,1.177,2.319,2.473,2.319c0.055,0,0.11-0.002,0.165-0.006   c1.368-0.089,2.403-1.269,2.315-2.637c-0.289-4.435-0.45-9.015-0.499-13.883c1.442,0.175,3.002,0.176,4.447,0.004   c-0.049,4.887-0.21,9.476-0.501,13.909c-0.089,1.367,0.946,2.548,2.313,2.638c0.057,0.004,0.112,0.006,0.166,0.006   c1.295,0,2.386-1.006,2.473-2.319c0.218-3.317,0.358-6.728,0.442-10.266C23.06,59.877,22.963,59.795,22.885,59.69z"/>
</g>
<g>
	<path d="M79.975,35.771c-3.883-3.037-14.773-2.66-18.675-0.126c-0.901,0.584-1.699,1.536-2.41,2.694   c1.006,1.907,1.853,4.083,2.558,6.276c0.21-0.623,0.423-1.221,0.641-1.756c-0.091,0.501-0.155,1.011-0.155,1.538v1.801   c1.015,3.479,1.68,6.819,2.044,8.927c0.363,2.092-0.427,4.111-1.903,5.439c0.102,3.9,0.264,7.677,0.505,11.366   c0.102,1.562,1.402,2.762,2.944,2.762c0.065,0,0.131-0.002,0.196-0.007c1.629-0.106,2.861-1.511,2.756-3.139   c-0.344-5.281-0.535-10.733-0.594-16.529c1.717,0.209,3.575,0.21,5.295,0.004c-0.058,5.819-0.25,11.283-0.596,16.56   c-0.106,1.628,1.127,3.034,2.754,3.14c0.067,0.005,0.133,0.007,0.198,0.007c1.542,0,2.84-1.198,2.944-2.761   c0.416-6.352,0.621-12.939,0.631-20.098c0.012-0.086,0.058-0.162,0.058-0.252v-7.221c0-0.325-0.06-0.634-0.096-0.95   c1.147,2.997,2.232,7.189,2.874,10.883c0.231,1.337,1.488,2.233,2.846,2.004c1.338-0.233,2.237-1.506,2.004-2.845   C86.379,51.096,84.1,38.997,79.975,35.771z"/>
	<path d="M54.518,52.173c0.294,1.242,0.555,2.488,0.78,3.701c0.312,0.228,0.661,0.409,1.07,0.47   c0.123,0.018,0.246,0.027,0.367,0.027c1.198,0,2.248-0.876,2.431-2.097c0.166-1.112,0.377-2.262,0.617-3.408   c-0.623-2.65-1.523-5.882-2.692-8.722C55.763,45.681,54.941,49.693,54.518,52.173z"/>
</g>
<path d="M58.101,58.853c0.153,0,0.309-0.013,0.466-0.039c1.474-0.256,2.462-1.658,2.206-3.132  c-0.455-2.635-2.964-15.955-7.505-19.506c-2.089-1.634-6.022-2.37-9.997-2.37c-4.159,0-8.366,0.805-10.562,2.231  c-4.893,3.172-7.139,15.886-7.711,19.706c-0.222,1.48,0.798,2.86,2.28,3.081c0.135,0.02,0.271,0.03,0.404,0.03  c1.319,0,2.475-0.964,2.676-2.309c0.656-4.385,1.897-9.32,3.218-12.566c-0.1,0.551-0.171,1.113-0.171,1.693v7.949  c0,0.026,0.016,0.048,0.017,0.074c0.008,7.927,0.234,15.228,0.693,22.288c0.112,1.72,1.543,3.04,3.241,3.04  c0.072,0,0.144-0.002,0.216-0.007c1.793-0.116,3.15-1.664,3.034-3.456c-0.379-5.813-0.589-11.816-0.654-18.197  c0.952,0.116,1.942,0.173,2.933,0.173c0.978,0,1.955-0.056,2.896-0.168c-0.064,6.406-0.275,12.421-0.657,18.231  c-0.116,1.792,1.241,3.34,3.032,3.457c0.074,0.005,0.146,0.007,0.218,0.007c1.698,0,3.127-1.319,3.241-3.039  c0.458-6.993,0.684-14.245,0.694-22.126c0.013-0.095,0.064-0.179,0.064-0.277v-7.949c0-0.358-0.067-0.698-0.105-1.045  c1.263,3.299,2.457,7.914,3.164,11.981C55.662,57.925,56.795,58.853,58.101,58.853z"/>
<g>
	<circle cx="42.891" cy="21.554" r="10.298"/>
</g>
</svg>