<svg xmlns="http://www.w3.org/2000/svg" xmlns:xlink="http://www.w3.org/1999/xlink" version="1.1" id="Note" x="0px" y="0px" width="100px" height="49.571px" viewBox="0 0 100 49.571" enable-background="new 0 0 100 49.571" xml:space="preserve">
<g>
	<path d="M60.993,7.96c0-0.571-0.285-1.104-0.758-1.422c-0.475-0.318-1.072-0.38-1.604-0.163l-15.808,6.467   c-0.643,0.263-1.063,0.89-1.063,1.585v19.386c-0.482-0.156-0.987-0.264-1.521-0.264c-2.729,0-4.947,2.219-4.947,4.947   s2.219,4.947,4.947,4.947c2.609,0,4.73-2.037,4.912-4.602c0.022-0.111,0.034-0.229,0.034-0.346v-15.89l12.382-5.065v9.806   c-0.482-0.157-0.988-0.264-1.521-0.264c-2.729,0-4.947,2.218-4.947,4.947s2.218,4.947,4.947,4.947c2.609,0,4.73-2.037,4.912-4.602   c0.023-0.111,0.035-0.229,0.035-0.346V7.96z M57.567,10.511v2.203l-12.382,5.065v-2.203L57.567,10.511z M45.185,21.372v-2.358   l12.382-5.066v2.359L45.185,21.372z"/>
	<g>
		<g>
			<path d="M29.26,33.002c-0.621,0-1.241-0.234-1.719-0.705c-2.137-2.111-3.315-4.93-3.315-7.934c0-2.308,0.698-4.523,2.021-6.406     c0.775-1.104,2.3-1.37,3.403-0.595c1.103,0.776,1.37,2.3,0.595,3.403c-0.741,1.056-1.134,2.3-1.134,3.598     c0,1.687,0.661,3.272,1.865,4.459c0.959,0.949,0.969,2.494,0.021,3.455C30.519,32.76,29.888,33.002,29.26,33.002z"/>
		</g>
		<g>
			<path d="M23.948,36.944c-0.506,0-1.007-0.201-1.381-0.596c-3.097-3.277-4.802-7.564-4.802-12.077     c0-3.869,1.234-7.542,3.568-10.619c0.635-0.838,1.828-1,2.663-0.366c0.836,0.635,1,1.828,0.365,2.663     c-1.828,2.41-2.796,5.289-2.796,8.322c0,3.536,1.337,6.899,3.763,9.467c0.721,0.762,0.686,1.965-0.078,2.686     C24.885,36.772,24.416,36.944,23.948,36.944z"/>
		</g>
		<g>
			<path d="M18.637,40.883c-0.366,0-0.733-0.148-1.002-0.439c-4.08-4.445-6.327-10.221-6.327-16.26     c0-5.412,1.754-10.521,5.074-14.779c0.458-0.591,1.312-0.695,1.905-0.235c0.59,0.462,0.697,1.314,0.235,1.905     c-2.944,3.775-4.502,8.308-4.502,13.109c0,5.358,1.994,10.481,5.616,14.424c0.505,0.553,0.469,1.412-0.083,1.918     C19.293,40.764,18.963,40.883,18.637,40.883z"/>
		</g>
		<g>
			<path d="M13.325,44.825c-0.224,0-0.444-0.09-0.604-0.268C7.645,38.94,4.848,31.672,4.848,24.095     c0-6.941,2.271-13.484,6.568-18.922c0.28-0.351,0.794-0.41,1.146-0.134c0.351,0.28,0.411,0.792,0.134,1.146     c-4.069,5.145-6.219,11.339-6.219,17.91c0,7.173,2.646,14.052,7.452,19.371c0.3,0.332,0.274,0.848-0.059,1.15     C13.714,44.756,13.52,44.825,13.325,44.825z"/>
		</g>
	</g>
	<g>
		<g>
			<path d="M70.62,33.002c0.619,0,1.24-0.234,1.717-0.705c2.139-2.111,3.316-4.93,3.316-7.934c0-2.308-0.697-4.523-2.021-6.406     c-0.775-1.104-2.301-1.37-3.404-0.595c-1.102,0.776-1.369,2.3-0.594,3.403c0.742,1.056,1.133,2.3,1.133,3.598     c0,1.687-0.66,3.272-1.865,4.459c-0.957,0.949-0.969,2.494-0.02,3.455C69.36,32.76,69.991,33.002,70.62,33.002z"/>
		</g>
		<g>
			<path d="M75.93,36.944c0.506,0,1.006-0.201,1.381-0.596c3.098-3.277,4.801-7.564,4.801-12.077c0-3.869-1.234-7.542-3.568-10.619     c-0.635-0.838-1.828-1-2.662-0.366c-0.836,0.635-1,1.828-0.365,2.663c1.828,2.41,2.795,5.289,2.795,8.322     c0,3.536-1.336,6.899-3.762,9.467c-0.721,0.762-0.686,1.965,0.078,2.686C74.995,36.772,75.461,36.944,75.93,36.944z"/>
		</g>
		<g>
			<path d="M81.243,40.883c0.365,0,0.732-0.148,1-0.439c4.08-4.445,6.328-10.221,6.328-16.26c0-5.412-1.754-10.521-5.074-14.779     c-0.459-0.591-1.312-0.695-1.906-0.235c-0.59,0.462-0.697,1.314-0.234,1.905c2.943,3.775,4.502,8.308,4.502,13.109     c0,5.358-1.994,10.481-5.617,14.424c-0.504,0.553-0.469,1.412,0.084,1.918C80.584,40.764,80.915,40.883,81.243,40.883z"/>
		</g>
		<g>
			<path d="M86.553,44.825c0.223,0,0.443-0.09,0.604-0.268c5.076-5.617,7.873-12.885,7.873-20.462     c0-6.941-2.271-13.484-6.568-18.922c-0.279-0.351-0.793-0.41-1.145-0.134c-0.352,0.28-0.412,0.792-0.133,1.146     c4.068,5.145,6.217,11.339,6.217,17.91c0,7.173-2.645,14.052-7.451,19.371c-0.301,0.332-0.275,0.848,0.059,1.15     C86.165,44.756,86.358,44.825,86.553,44.825z"/>
		</g>
	</g>
</g>
</svg>