<svg xmlns="http://www.w3.org/2000/svg" xmlns:xlink="http://www.w3.org/1999/xlink" version="1.1" id="Calque_1" x="0px" y="0px" width="90px" height="90px" viewBox="0 0 90 90" enable-background="new 0 0 90 90" xml:space="preserve">
<path d="M62.755,61.214c0.192,0,0.386-0.016,0.58-0.049c1.836-0.319,3.067-2.065,2.749-3.901c-0.567-3.28-3.691-19.869-9.347-24.294  c-2.603-2.036-7.5-2.951-12.452-2.951c-5.181,0-10.419,1.002-13.154,2.778c-6.094,3.95-8.891,19.785-9.604,24.542  c-0.278,1.844,0.994,3.561,2.84,3.837c0.17,0.024,0.337,0.038,0.505,0.038c1.642,0,3.083-1.201,3.332-2.875  c0.815-5.459,2.362-11.607,4.007-15.649c-0.124,0.686-0.213,1.385-0.213,2.109v9.901c0,0.032,0.022,0.059,0.022,0.092  c0.011,9.874,0.292,18.964,0.864,27.758c0.14,2.141,1.922,3.785,4.036,3.785c0.089,0,0.178-0.003,0.27-0.008  c2.233-0.146,3.923-2.074,3.777-4.304c-0.472-7.241-0.734-14.717-0.815-22.663c1.185,0.143,2.419,0.216,3.653,0.216  c1.218,0,2.435-0.07,3.607-0.211c-0.081,7.978-0.343,15.471-0.818,22.706c-0.146,2.233,1.544,4.161,3.774,4.306  c0.092,0.005,0.181,0.008,0.273,0.008c2.114,0,3.893-1.642,4.036-3.785c0.57-8.71,0.85-17.741,0.864-27.555  c0.016-0.119,0.081-0.221,0.081-0.346v-9.901c0-0.445-0.084-0.869-0.132-1.301c1.574,4.109,3.059,9.857,3.939,14.92  C59.718,60.055,61.127,61.214,62.755,61.214z"/>
<g>
	<circle cx="43.812" cy="14.762" r="12.825"/>
</g>
</svg>